HIERARCHY
ROOT pelvis
{
  OFFSET 0 100 0
  CHANNELS 6 Xposition Yposition Zposition Zrotation Xrotation Yrotation
  JOINT pelvis_right_femur
  {
    OFFSET -10.78128 -3.44521 -0.5502486
    CHANNELS 3 Zrotation Xrotation Yrotation
    JOINT right_femur_tibia
    {
      OFFSET -0.8047443 -44.0398 -0.1307829
      CHANNELS 3 Zrotation Xrotation Yrotation
      JOINT right_tibia_foot
      {
        OFFSET 3.006224 -47.83518 -5
        CHANNELS 3 Zrotation Xrotation Yrotation
        End Site
        {
          OFFSET 0 -5 15
        }
      }
    }
  }
  JOINT pelvis_left_femur
  {
    OFFSET 10.78128 -3.44521 -0.5502486
    CHANNELS 3 Zrotation Xrotation Yrotation
    JOINT left_femur_tibia
    {
      OFFSET 0.8047443 -44.0398 -0.1307829
      CHANNELS 3 Zrotation Xrotation Yrotation
      JOINT left_tibia_foot
      {
        OFFSET -4.370144 -48.10324 -4.275266
        CHANNELS 3 Zrotation Xrotation Yrotation
        End Site
        {
          OFFSET 0 -5 15
        }
      }
    }
  }
  JOINT pelvis_spine1
  {
    OFFSET 0 6.468898 -3.129235
    CHANNELS 3 Zrotation Xrotation Yrotation
    JOINT spine1
    {
      OFFSET 0 23.15396 4.99043
      CHANNELS 3 Zrotation Xrotation Yrotation
      JOINT spine2
      {
        OFFSET 0 20.79997 -5.064912
        CHANNELS 3 Zrotation Xrotation Yrotation
        JOINT neck
        {
          OFFSET 0 14.38658 9.616178
          CHANNELS 3 Zrotation Xrotation Yrotation
          End Site
          {
            OFFSET 0 20 0
          }
        }
      }
      JOINT right_manubrium
      {
        OFFSET -5.722621 16.35077 3.967754
        CHANNELS 3 Zrotation Xrotation Yrotation
        JOINT right_clavicle
        {
          OFFSET -13.16364 1.694482 -4.693211
          CHANNELS 3 Zrotation Xrotation Yrotation
          JOINT right_humerus
          {
            OFFSET -28.5034 -0.3100689 -2.792744
            CHANNELS 3 Zrotation Xrotation Yrotation
            JOINT right_radius
            {
              OFFSET -25.15693 0.02248979 -1.271978
              CHANNELS 3 Zrotation Xrotation Yrotation
              End Site
              {
                OFFSET -15 0 0
              }
            }
          }
        }
      }
      JOINT left_manubrium
      {
        OFFSET 5.722621 16.35077 3.967754
        CHANNELS 3 Zrotation Xrotation Yrotation
        JOINT left_clavicle
        {
          OFFSET 13.16364 1.694482 -4.693211
          CHANNELS 3 Zrotation Xrotation Yrotation
          JOINT left_humerus
          {
            OFFSET 29.39168 -1.063119 -2.237045
            CHANNELS 3 Zrotation Xrotation Yrotation
            JOINT left_radius
            {
              OFFSET 24.59957 -0.9528479 0.9047498
              CHANNELS 3 Zrotation Xrotation Yrotation
              End Site
              {
                OFFSET 15 -0 -0
              }
            }
          }
        }
      }
    }
  }
}
MOTION
Frames: 18
Frame Time: 0.0416666666667
40.98147 104.5031 241.12 2.080413 -7.322741 7.188074 1.265277 11.00652 7.328681 -6.235935e-07 36.70416 3.566129e-07 2.161679 -10.37605 -5.295914 -2.03171 -14.79336 -7.93452 3.403415e-08 19.13164 -2.862881e-07 -7.763401 -9.949408 18.81992 -1.509327 0.05679206 7.253309 -1.334778 9.855448 -4.01404 2.354614 21.63188 4.753551 2.268545 -16.21965 6.507271 2.54283 -21.06154 10.68241 83.07415 24.95875 -8.295855 9.924237e-08 3.481287e-07 24.59139 -21.67158 11.99205 12.73603 4.279502 -15.39637 -3.01319 -94.59059 26.71314 25.75294 2.858635e-08 4.344478e-07 -10.45452 -5.351157 5.947021 20.61108
42.604 105.0366 247.0312 2.430435 -7.73925 7.582882 0.6635298 9.162075 7.371527 -4.90606e-07 43.48904 3.433166e-07 2.073045 -8.677966 -5.855918 -3.14764 -11.46809 -8.997892 9.710947e-08 20.27888 7.070763e-07 -7.237077 -10.35958 18.71361 -1.849305 -0.1617961 6.801952 -1.424239 9.859701 -4.206454 2.37504 21.94044 4.886581 2.2845 -16.04389 6.697748 2.808132 -20.19731 10.54172 83.73053 25.14285 -9.370265 1.324257e-08 3.376456e-07 23.07141 -21.17528 11.73399 12.02839 4.016665 -15.43819 -3.211598 -93.49415 27.30971 24.32353 2.089105e-07 4.361284e-07 -10.54604 -5.104283 6.237615 20.39799
44.17739 105.8732 252.6068 2.789611 -8.248274 8.210233 0.1976279 5.652864 7.284292 -4.375702e-07 50.06805 5.178315e-07 1.976095 -7.388689 -6.525457 -4.184867 -7.428888 -10.10256 -2.027845e-07 20.53917 1.899469e-06 -6.676374 -11.41398 18.40302 -2.122833 -0.1065644 6.191853 -1.481446 9.846202 -4.483918 2.377144 22.29295 5.066047 2.237669 -15.82132 6.976995 3.027763 -19.31804 10.42205 84.64879 25.15531 -10.7597 4.527957e-08 3.364403e-07 21.53773 -20.45954 11.46485 11.15147 3.860504 -15.6451 -3.538631 -92.15683 28.00945 22.3855 3.459536e-07 4.73788e-07 -11.26865 -4.780349 6.571496 20.07259
45.66295 106.8439 257.7602 3.012244 -8.591074 9.006186 0.07480541 0.9283693 7.054898 -4.648762e-07 54.30696 7.992302e-07 1.640835 -7.013641 -7.166136 -4.902279 -2.999813 -11.1097 -7.432786e-07 20.31354 3.145213e-06 -6.199603 -12.74936 17.85555 -2.228013 0.1173144 5.466226 -1.406937 9.70268 -4.846519 2.384233 22.58369 5.194431 2.097054 -15.64908 7.293221 3.122034 -18.43691 10.26291 85.51801 25.06496 -12.31429 1.509868e-07 3.168742e-07 19.9909 -19.32105 11.21666 10.04995 3.82806 -15.97852 -3.852033 -90.53616 28.72323 20.05611 4.306655e-07 4.991e-07 -12.52642 -4.314557 7.061856 19.48287
47.09005 107.7504 262.7122 3.069826 -8.626889 9.911434 0.1879434 -4.071237 6.621076 -5.23128e-07 55.31426 1.016701e-06 1.354767 -6.880182 -7.754514 -5.220189 1.340854 -11.71125 -1.126893e-06 18.98712 3.935111e-06 -6.122582 -14.30559 17.10072 -2.191659 0.3745588 4.731981 -1.231242 9.448933 -5.258644 2.420221 22.76808 5.288907 1.953556 -15.60704 7.593533 3.029201 -17.693 10.06348 86.59876 24.81657 -13.86777 2.62792e-07 3.083816e-07 18.64107 -18.42111 11.09014 9.203821 4.031065 -16.45349 -4.098778 -89.19415 29.21058 17.72906 4.37971e-07 4.975847e-07 -14.17177 -3.865981 7.469638 18.89786
48.41856 108.3117 267.3494 3.095341 -8.481769 10.84435 0.4851605 -9.201507 6.131102 -7.560422e-07 52.76948 1.304886e-06 0.9739493 -7.276318 -8.125794 -5.341662 5.021523 -12.19385 -1.400518e-06 16.96679 3.904269e-06 -5.842568 -16.13403 16.72217 -2.142284 0.7252514 4.092803 -0.9507428 9.171863 -5.622235 2.431821 22.83968 5.396363 1.864035 -15.59257 7.831982 2.827483 -17.05813 9.905679 87.04221 24.52494 -15.18881 4.414592e-07 2.700207e-07 17.33171 -17.47481 10.81037 8.383818 4.481369 -17.06715 -4.289347 -87.59775 29.43822 15.21356 3.320535e-07 5.041225e-07 -16.15897 -3.236586 8.035468 17.95879
49.66272 108.4319 271.9485 3.023311 -8.054187 11.71364 0.8369505 -13.81088 5.52884 -8.860767e-07 47.12061 1.322147e-06 0.6868294 -7.807721 -8.461919 -5.254145 8.435534 -12.30766 -1.373883e-06 14.79868 3.432815e-06 -5.899445 -17.88929 16.36551 -2.079864 0.9478547 3.534055 -0.5917809 8.769062 -6.002414 2.485877 22.87447 5.455165 1.823686 -15.61869 8.001229 2.503874 -16.39229 9.682153 87.55939 24.25526 -16.50399 5.456951e-07 2.141982e-07 15.94844 -16.84838 10.59882 7.782003 5.134498 -17.79408 -4.334899 -86.18623 29.4684 12.55555 1.838789e-07 4.567289e-07 -18.42053 -2.620342 8.518721 17.01649
50.84145 108.1045 276.7505 2.922568 -7.442859 12.46835 1.127596 -17.52549 4.87885 -9.349496e-07 39.66379 1.099019e-06 0.4978831 -8.33115 -8.776685 -5.108616 11.51079 -12.14299 -1.07927e-06 13.1612 2.758693e-06 -6.178425 -19.3755 16.10979 -2.0743 0.9763476 3.098103 -0.2026211 8.301692 -6.386593 2.569877 22.93574 5.478358 1.849216 -15.65529 8.093394 2.151331 -15.65633 9.421728 88.19807 24.11457 -17.84812 5.446949e-07 1.383624e-07 14.42057 -16.54684 10.44907 7.35341 5.886171 -18.59781 -4.247672 -85.00247 29.36449 9.842865 3.367919e-08 3.545867e-07 -20.80042 -2.031376 8.923988 16.1207
51.90709 107.3165 281.6221 2.865371 -6.881224 13.08832 1.366678 -20.8774 4.249923 -1.011632e-06 32.01543 8.943633e-07 0.1282071 -9.085266 -8.959867 -5.025543 14.10726 -12.03273 -8.598447e-07 12.24832 2.118882e-06 -6.191185 -20.69035 16.10216 -2.123467 1.003953 2.742335 0.1790976 7.867806 -6.714762 2.618835 23.04972 5.516944 1.904344 -15.65664 8.146303 1.839021 -14.88794 9.208221 88.52207 24.10526 -19.1091 5.366871e-07 2.669967e-08 12.74439 -16.13461 10.16356 6.819139 6.606306 -19.42271 -4.144602 -83.64031 29.19795 7.058576 -1.141853e-07 2.451366e-07 -23.17492 -1.296144 9.461094 15.01605
52.86982 106.2469 286.6272 2.75286 -6.295584 13.56412 1.539499 -23.27802 3.629526 -9.746478e-07 25.41305 6.063728e-07 -0.4781443 -9.852587 -9.023265 -4.954061 16.28263 -11.90762 -6.460847e-07 12.5034 1.96475e-06 -6.232324 -21.37837 15.97337 -2.161297 0.8883051 2.441189 0.5242177 7.421244 -7.003577 2.654916 23.2109 5.515655 1.946068 -15.7187 8.165381 1.583931 -14.09884 8.984193 88.84429 24.2932 -20.26584 4.353658e-07 -9.907644e-08 11.01307 -15.65155 9.897256 6.258902 7.128245 -20.12798 -3.980999 -82.40975 29.06802 4.619561 -1.906126e-07 8.226064e-08 -25.14735 -0.5304319 10.03801 13.9209
53.75749 105.1082 291.8031 2.593594 -5.84241 13.94384 1.687913 -24.78418 3.151484 -8.487444e-07 21.28437 3.317978e-07 -1.241576 -10.48737 -9.074663 -4.888699 18.15027 -11.87102 -5.140699e-07 13.86032 2.358955e-06 -6.382413 -21.41794 15.63043 -2.132413 0.6906238 2.154694 0.786769 7.012194 -7.230244 2.705891 23.39722 5.445093 1.921484 -15.81662 8.191414 1.395597 -13.37149 8.754979 89.2533 24.50932 -21.2305 2.801425e-07 -2.068915e-07 9.472678 -15.04816 9.702224 5.668534 7.356687 -20.57713 -3.813518 -81.45842 29.06932 2.815592 -1.838209e-07 -9.899043e-08 -26.38338 0.1240056 10.58696 13.02967
54.66403 104.2137 297.3589 2.395801 -5.587299 14.29708 1.812721 -25.03456 2.912063 -6.194493e-07 20.67942 3.213025e-08 -1.936518 -10.47693 -9.254743 -4.846833 19.87792 -11.87922 -3.612591e-07 16.53939 3.210237e-06 -6.952205 -20.68857 14.97954 -2.022707 0.3641334 1.877039 0.9250944 6.664463 -7.385202 2.829152 23.62457 5.284365 1.838091 -15.96521 8.249787 1.29371 -12.72123 8.501344 90.12878 24.63264 -22.00227 4.727616e-08 -2.580175e-07 8.262156 -14.54571 9.697894 5.195098 7.250259 -20.66247 -3.640524 -81.23158 29.32246 1.967322 -7.352982e-08 -2.883965e-07 -26.54766 0.4250069 10.94392 12.70336
55.61608 103.7662 303.2436 2.201082 -5.640018 14.62284 2.161662 -24.07225 3.08943 -3.966937e-07 22.36478 -1.873071e-07 -2.680166 -10.1496 -9.4345 -4.76075 20.7462 -11.99714 -3.709534e-07 20.96216 3.966503e-06 -7.603645 -19.21894 14.43669 -1.790257 0.07375327 1.708323 0.9732922 6.507492 -7.379358 2.997803 23.80709 5.040963 1.721714 -16.12716 8.296316 1.260281 -12.28078 8.330808 90.82663 24.60951 -22.3441 -1.543453e-07 -2.720597e-07 7.496619 -13.94871 9.736166 4.734783 6.860661 -20.40245 -3.50418 -81.52574 29.67694 2.191845 7.26778e-08 -4.183616e-07 -25.62081 0.4878105 11.23884 12.70333
56.62035 103.8831 309.4084 2.027863 -5.963699 14.86208 2.786105 -21.8572 3.641423 -2.352999e-07 24.69244 -3.396855e-07 -3.448668 -9.797611 -9.579977 -4.583924 20.38176 -12.09384 -5.329577e-07 27.28816 4.361829e-06 -8.385793 -17.12912 14.19831 -1.446018 -0.1141136 1.72714 0.9657371 6.534577 -7.199301 3.210793 24.00872 4.739623 1.622717 -16.29623 8.311064 1.26722 -12.06575 8.28397 91.40783 24.49009 -22.29585 -3.104173e-07 -2.741884e-07 7.158271 -13.38057 9.791672 4.346687 6.330534 -19.92553 -3.369328 -82.5368 30.10842 3.384899 2.105442e-07 -4.886792e-07 -23.9193 0.3307769 11.46937 12.99779
57.60186 104.4942 315.4977 2.053348 -6.602545 14.94786 3.486329 -18.40447 4.425781 -2.352294e-07 26.7655 -3.028423e-07 -4.257204 -9.909325 -9.46378 -4.422504 17.88186 -12.20219 -8.86512e-07 34.65448 4.178595e-06 -8.772928 -14.87337 14.78358 -1.143173 -0.03096477 2.0658 0.8790227 6.808877 -6.76211 3.368576 24.30171 4.505227 1.619984 -16.37735 8.259782 1.345401 -12.18463 8.468339 91.32476 24.4614 -21.63776 -3.465263e-07 -3.169401e-07 7.31595 -12.90941 9.623175 4.065204 5.790101 -19.36303 -3.274336 -83.99909 30.50124 5.315639 2.838916e-07 -4.763024e-07 -21.80231 0.1360229 11.74323 13.30729
58.48347 105.3644 321.2072 2.260627 -7.448473 14.82129 4.087428 -14.40748 5.17104 -4.440289e-07 27.40901 -7.32824e-08 -4.935848 -10.60969 -9.141091 -4.254831 13.71048 -12.21016 -1.188145e-06 41.13419 3.32338e-06 -8.815839 -13.02273 16.04489 -0.9270709 0.3459078 2.639514 0.7254076 7.217468 -6.130823 3.468815 24.65921 4.35033 1.686419 -16.2981 8.15804 1.370678 -12.6232 8.811537 90.6315 24.3635 -20.42958 -2.477837e-07 -3.985363e-07 7.972246 -12.72364 9.255234 3.998578 5.423948 -18.84398 -3.227201 -85.63307 30.73262 7.475556 2.513376e-07 -3.968216e-07 -19.77006 -0.05915075 12.02224 13.55026
59.29533 106.4463 326.6791 2.459602 -8.103535 14.44615 4.456851 -9.710196 5.697044 -6.656423e-07 26.96933 4.887932e-08 -5.413397 -11.19947 -8.679577 -4.111118 9.010217 -12.02091 -9.681171e-07 46.7093 2.02715e-06 -8.930757 -11.30263 17.49481 -0.8429831 0.625506 3.329857 0.5599604 7.572559 -5.475218 3.547218 25.06136 4.261128 1.850663 -16.27369 8.019098 1.400361 -13.13051 9.152617 90.02303 24.44307 -19.09485 -2.109206e-07 -4.846181e-07 8.723649 -12.97847 8.911012 4.248309 5.19717 -18.38879 -3.088378 -87.63813 30.86805 9.756198 2.017274e-07 -3.581754e-07 -17.83937 -0.3125541 12.20492 13.89928
60.00629 107.4617 331.7124 2.656792 -8.574342 13.84801 4.577622 -5.243903 5.911153 -9.653725e-07 25.53086 2.389486e-07 -5.873978 -11.97825 -7.859204 -4.012839 3.722373 -11.91391 -4.068018e-07 49.14424 2.130125e-07 -8.473424 -10.28646 19.21218 -0.9119826 0.9811163 4.046474 0.3866877 7.880159 -4.758163 3.508827 25.37739 4.309944 2.065304 -16.29628 7.87268 1.366969 -13.87581 9.512185 88.70644 24.60407 -17.29915 -1.116404e-07 -5.883561e-07 9.751683 -13.36948 8.357743 4.719153 5.149655 -17.98943 -2.952252 -89.29655 30.78299 11.98585 8.748576e-08 -3.162432e-07 -16.08405 -0.3518803 12.52495 13.91673
